# xmcd CD database file
#
# Track frame offsets:
#	150
#	13721
#	25769
#	36859
#	49679
#	59700
#	72513
#	87054
#	98046
#	108108
#	119477
#	134070
#	144336
#	156151
#	166730
#	176913
#
# Disc length: 2545 seconds
#
# Revision: 0
# Processed by: cddbd v1.5.2PL0 Copyright (c) Steve Scherf et al.
# Submitted via: CDex 1.70beta2
#
DISCID=db09ef10
DTITLE=Los Palmeras - 20 grandes exitos
DYEAR=1900
DGENRE=Salsa
TTITLE0=La Que Baila Y Baila
TTITLE1=Te Regalare Mi Vida
TTITLE2=De Noche
TTITLE3=El Huerfano
TTITLE4=Amor Joven
TTITLE5=Alla Entre Las Olas
TTITLE6=De Arabia Con Amor
TTITLE7=Volveras A Darme Tu Querer
TTITLE8=Alla En La Arena
TTITLE9=Bailando Te Vez Preciosa
TTITLE10=Rumor De Cumbia
TTITLE11=No He De Ponerme Triste
TTITLE12=Escapando La Verdad
TTITLE13=Alumbra La Luna
TTITLE14=El Loro Y El Galo
TTITLE15=Llamame Or Nuestro Amor
EXTD=
EXTT0=
EXTT1=
EXTT2=
EXTT3=
EXTT4=
EXTT5=
EXTT6=
EXTT7=
EXTT8=
EXTT9=
EXTT10=
EXTT11=
EXTT12=
EXTT13=
EXTT14=
EXTT15=
PLAYORDER=
